<svg height="324.932" viewBox="0 0 354.095 324.932" width="354.095"
    xmlns="http://www.w3.org/2000/svg">
    <path
        d="M0,0S21.373,6.673,29.983,12.374c14.893,9.86,25.65,24.451,28.98,31.706,7.885,17.175,43.456,51.158,100.954,28.7C187.769,61.1,238.08,21.871,293.781,39.536c47.473,21.562,71.683,67.642,55.1,127.635-7.626,25.7-39.3,25.7-24.105,77.116,8.537,22.884,8.537,46.805-25.6,54.891-10.781.9-27.851,1.8-61.092-2.7-11.679-.9-44.022,0-55.7,2.7s-26.054,6.289-26.054,6.289l-59.3,13.476S34.14,332.419,0,318.943Z"
        fill="#ffe7d4" transform="translate(0)" />
</svg>