<svg height="20" viewBox="0 0 20 20" width="20" xmlns="http://www.w3.org/2000/svg">
    <defs>
        <style>.a{fill:none;}.b{fill:#70af1a;}</style>
    </defs>
    <rect class="a" height="20" width="20" />
    <g transform="translate(1.667)">
        <path class="b"
            d="M11.217,0A5.66,5.66,0,0,1,8.333.814,5.66,5.66,0,0,1,5.449,0,5.836,5.836,0,0,0,0,5.814V7.256l.579.186a27.746,27.746,0,0,0,7.754.873,27.746,27.746,0,0,0,7.754-.873l.579-.186V5.814A5.836,5.836,0,0,0,11.217,0Z"
            transform="translate(0 11.686)" />
        <path class="b"
            d="M5,10.833c2.816,0,5-3.136,5-5.833A5,5,0,0,0,0,5C0,7.7,2.184,10.833,5,10.833Z"
            transform="translate(3.333)" />
    </g>
</svg>