<svg height="20" viewBox="0 0 20 20" width="20" xmlns="http://www.w3.org/2000/svg">
    <g transform="translate(0)">
        <g transform="translate(0)">
            <path
                d="M19.881,4.77,17.381.422A.827.827,0,0,0,16.667,0H3.333a.827.827,0,0,0-.714.422L.119,4.77A.9.9,0,0,0,0,5.217,3.4,3.4,0,0,0,3.319,8.7h.007A3.235,3.235,0,0,0,5.554,7.8,3.212,3.212,0,0,0,10,7.8a3.212,3.212,0,0,0,4.447,0,3.22,3.22,0,0,0,3.584.592A3.482,3.482,0,0,0,20,5.217.9.9,0,0,0,19.881,4.77Z"
                fill="#c8c8d3" transform="translate(0)" />
            <path
                d="M14.18.546A4.837,4.837,0,0,1,11.947,0l-.012.006a4.769,4.769,0,0,1-3.8.27A4.967,4.967,0,0,1,7.5,0l-.009,0a4.761,4.761,0,0,1-3.8.269A4.956,4.956,0,0,1,3.054,0,4.822,4.822,0,0,1,.826.546,4.915,4.915,0,0,1,0,.468V9.242a.852.852,0,0,0,.833.87h5V4.894H9.167v5.217h5A.852.852,0,0,0,15,9.242V.464A4.825,4.825,0,0,1,14.18.546Z"
                fill="#c8c8d3" transform="translate(2.5 9.889)" />
        </g>
    </g>
</svg>