<svg height="40" viewBox="0 0 40 40" width="40" xmlns="http://www.w3.org/2000/svg">
    <path d="M10,0H40a0,0,0,0,1,0,0V30A10,10,0,0,1,30,40H10A10,10,0,0,1,0,30V10A10,10,0,0,1,10,0Z"
        fill="#f6bdac" />
    <g transform="translate(10 10)">
        <path
            d="M5,12.583a.9.9,0,0,1-.584-.25,26.448,26.448,0,0,1-2.365-2.76C.69,7.726,0,6.187,0,5A4.952,4.952,0,0,1,5,0a4.952,4.952,0,0,1,5,5c0,1.187-.69,2.726-2.052,4.573a26.448,26.448,0,0,1-2.365,2.76A.894.894,0,0,1,5,12.583Zm0-9.25A1.667,1.667,0,1,0,6.667,5,1.669,1.669,0,0,0,5,3.333Z"
            fill="#fff" transform="translate(10 6.667)" />
        <path
            d="M5,9.083A2.708,2.708,0,0,0,7.083,10a2.744,2.744,0,0,0,1.583-.5A6.675,6.675,0,0,1,15,5a7.1,7.1,0,0,1,2.917.667l-3-5.25A.875.875,0,0,0,14.167,0h-10a.875.875,0,0,0-.75.417L.083,6.25A.751.751,0,0,0,0,6.667C0,8.667,1.167,10,2.917,10A2.708,2.708,0,0,0,5,9.083Z"
            fill="#fff" />
        <path
            d="M5.833.5V.333A6.433,6.433,0,0,1,4.583.5,4.518,4.518,0,0,1,2.5,0,4.518,4.518,0,0,1,.417.5H0V6.333a.787.787,0,0,0,.833.833h8.25C7.583,5.417,5.833,2.75,5.833.5Z"
            fill="#fff" transform="translate(2.5 11.167)" />
    </g>
</svg>