<svg height="40" viewBox="0 0 40 40" width="40" xmlns="http://www.w3.org/2000/svg">
    <path d="M10,0H40a0,0,0,0,1,0,0V30A10,10,0,0,1,30,40H10A10,10,0,0,1,0,30V10A10,10,0,0,1,10,0Z"
        fill="#89e2fe" />
    <g transform="translate(10 10)">
        <g transform="translate(2.5 0)">
            <path
                d="M7.5,20a.739.739,0,0,1-.584-.261,43.888,43.888,0,0,1-3.552-4.326A25.984,25.984,0,0,1,1.046,11.6,9.059,9.059,0,0,1,0,7.826,8.194,8.194,0,0,1,.656,4.549,7.56,7.56,0,0,1,7.5,0a7.56,7.56,0,0,1,6.844,4.549A8.194,8.194,0,0,1,15,7.826,9.059,9.059,0,0,1,13.954,11.6a25.984,25.984,0,0,1-2.319,3.818,43.888,43.888,0,0,1-3.552,4.326A.739.739,0,0,1,7.5,20Zm0-14.782a2.441,2.441,0,0,0-1.781.75,2.763,2.763,0,0,0,0,3.717,2.49,2.49,0,0,0,3.562,0,2.763,2.763,0,0,0,0-3.717A2.441,2.441,0,0,0,7.5,5.218Z"
                fill="#fff" />
        </g>
    </g>
</svg>