<svg height="40" viewBox="0 0 40 40" width="40" xmlns="http://www.w3.org/2000/svg">
    <path d="M10,0H40a0,0,0,0,1,0,0V30A10,10,0,0,1,30,40H10A10,10,0,0,1,0,30V10A10,10,0,0,1,10,0Z"
        fill="#f5b888" />
    <g transform="translate(10 10)">
        <g transform="translate(4.167 0.833)">
            <path
                d="M3.36,18.333,3.333,10H0V6.667H3.333V4.583C3.333,1.49,5.249,0,8.008,0A25.6,25.6,0,0,1,10.8.142V3.375H8.883c-1.5,0-1.791.713-1.791,1.759V6.667h4.367L9.792,10h-2.7v8.333Z"
                fill="#fff" />
        </g>
        <rect fill="none" height="20" width="20" />
    </g>
</svg>