<svg height="20" viewBox="0 0 20 20" width="20" xmlns="http://www.w3.org/2000/svg">
    <rect fill="none" height="20" width="20" />
    <g transform="translate(1.667 0)">
        <path
            d="M15.833,20h-15A.789.789,0,0,1,0,19.167V5a.789.789,0,0,1,.833-.833H4.167A4.123,4.123,0,0,1,8.333,0,4.123,4.123,0,0,1,12.5,4.167h3.333A.789.789,0,0,1,16.667,5V19.167A.789.789,0,0,1,15.833,20ZM8.333,1.666a2.456,2.456,0,0,0-2.5,2.5h5a2.456,2.456,0,0,0-2.5-2.5Z"
            fill="#c8c8d3" />
    </g>
</svg>