<svg height="40" viewBox="0 0 40 40" width="40" xmlns="http://www.w3.org/2000/svg">
    <path d="M10,0H40a0,0,0,0,1,0,0V30A10,10,0,0,1,30,40H10A10,10,0,0,1,0,30V10A10,10,0,0,1,10,0Z"
        fill="#f5b888" />
    <g transform="translate(10 10)">
        <path
            d="M10,20A10,10,0,1,1,20,10,10.011,10.011,0,0,1,10,20ZM9.712,1.681a8.307,8.307,0,0,0-4.354,1.4,7.548,7.548,0,0,1,.442.655c.268.45,1.547,2.768.384,4.272A3.907,3.907,0,0,1,4.222,9.157c-1,.34-1.2.482-1.2.843,0,.767.342,1.032.859,1.434a5.9,5.9,0,0,1,.562.476c.639.635,1.5,2.044.128,4.351a.161.161,0,0,1-.012.017l-.01.014A8.319,8.319,0,0,0,16.7,5.07a17.7,17.7,0,0,1-3.011.756c-.051,0-.1,0-.148,0a1.28,1.28,0,0,1-1.4-1.288c0-.067,0-.141.007-.221a1.02,1.02,0,0,0-.1-.66,2.037,2.037,0,0,0-.68-.472,2.794,2.794,0,0,1-.546-.334A5.124,5.124,0,0,1,9.712,1.681Z"
            fill="#fff" />
        <path
            d="M3.812,0A4.275,4.275,0,0,0,.476,1.553,2.237,2.237,0,0,0,.1,3.582,4.825,4.825,0,0,1,.3,6.662,1.893,1.893,0,0,0,1.4,9.185a2.2,2.2,0,0,0,.835.158A5.006,5.006,0,0,0,5.524,7.625a6.4,6.4,0,0,0,2.038-4.3A3.548,3.548,0,0,0,3.812,0Z"
            fill="#fff" transform="translate(9.116 7.419)" />
    </g>
</svg>