<svg height="40" viewBox="0 0 40 40" width="40" xmlns="http://www.w3.org/2000/svg">
    <path d="M10,0H40a0,0,0,0,1,0,0V30A10,10,0,0,1,30,40H10A10,10,0,0,1,0,30V10A10,10,0,0,1,10,0Z"
        fill="#bbaffe" />
    <g transform="translate(10 10)">
        <path
            d="M10,20A10,10,0,1,1,20,10,10.011,10.011,0,0,1,10,20Zm-.416-6.667a1.25,1.25,0,1,0,1.25,1.25A1.251,1.251,0,0,0,9.583,13.333Zm.34-7.266c.525,0,1.406.133,1.406,1.028,0,.8-.641,1.263-1.32,1.747L10,8.849a4.158,4.158,0,0,0-1.159,1.166A2.8,2.8,0,0,0,8.524,11.6v.069h2.048v-.061c0-.737,0-.935,1.136-1.775a5.535,5.535,0,0,0,1.469-1.391,2.76,2.76,0,0,0-.553-3.506,3.958,3.958,0,0,0-2.531-.769,7.827,7.827,0,0,0-3.655.969l.843,1.692A5.977,5.977,0,0,1,9.923,6.068Z"
            fill="#fff" />
    </g>
</svg>